<?xml version="1.0" standalone="no"?>
<!DOCTYPE svg PUBLIC "-//W3C//DTD SVG 20010904//EN"
 "http://www.w3.org/TR/2001/REC-SVG-20010904/DTD/svg10.dtd">
<svg version="1.0" xmlns="http://www.w3.org/2000/svg"
 width="700.000000pt" height="700.000000pt" viewBox="0 0 700.000000 700.000000"
 preserveAspectRatio="xMidYMid meet">
<metadata>
Created by potrace 1.11, written by Peter Selinger 2001-2013
</metadata>
<g transform="translate(0.000000,700.000000) scale(0.100000,-0.100000)"
fill="#000000" stroke="none">
<path d="M3351 6984 c-35 -8 -125 -43 -200 -79 -75 -35 -163 -71 -196 -80 -74
-20 -213 -22 -324 -5 -106 16 -215 8 -313 -23 -127 -41 -199 -88 -322 -212
-165 -166 -235 -207 -428 -251 -144 -32 -205 -56 -293 -115 -118 -79 -198
-182 -256 -326 -70 -177 -153 -276 -324 -388 -113 -74 -185 -138 -237 -213
-75 -108 -118 -250 -118 -387 0 -173 -55 -325 -174 -474 -168 -212 -205 -420
-120 -681 36 -110 38 -121 38 -250 0 -129 -2 -140 -38 -250 -85 -261 -49 -466
119 -680 120 -151 175 -302 175 -475 0 -137 43 -279 118 -387 52 -75 124 -139
237 -213 171 -112 251 -206 319 -375 64 -159 139 -257 261 -339 89 -59 149
-83 298 -116 72 -17 142 -40 197 -67 73 -37 102 -60 211 -168 77 -77 150 -140
190 -163 135 -79 302 -111 460 -87 111 17 250 15 324 -5 33 -9 121 -45 195
-80 271 -128 429 -128 700 0 74 35 162 71 195 80 74 20 213 22 324 5 158 -24
325 8 460 87 40 23 113 86 190 163 109 108 138 131 211 168 55 27 125 50 197
67 149 33 209 57 298 116 122 82 197 180 261 339 68 169 148 263 319 375 113
74 185 138 237 213 75 108 118 250 118 387 0 173 55 324 175 475 168 214 204
419 119 680 -36 110 -38 121 -38 250 0 129 2 140 38 250 85 261 48 469 -120
681 -119 149 -174 301 -174 474 0 137 -43 279 -118 387 -52 75 -124 139 -237
213 -171 112 -254 211 -324 388 -58 144 -138 247 -256 326 -88 59 -149 83
-293 115 -193 44 -263 85 -428 251 -123 124 -195 171 -322 212 -98 31 -207 39
-313 23 -111 -17 -250 -15 -324 5 -33 9 -121 45 -195 80 -81 39 -165 71 -208
80 -89 18 -204 18 -291 -1z m420 -604 c545 -54 1058 -255 1488 -583 496 -378
863 -925 1031 -1534 135 -491 135 -1035 0 -1526 -147 -533 -447 -1021 -850
-1381 -474 -425 -1038 -673 -1669 -736 -133 -13 -409 -13 -542 0 -545 54
-1058 255 -1488 583 -496 378 -863 925 -1031 1534 -135 491 -135 1035 0 1526
122 442 335 830 646 1177 469 525 1143 866 1854 939 122 12 440 13 561 1z"/>
<path d="M2455 5794 c-245 -38 -450 -222 -510 -459 -19 -76 -19 -214 0 -290
48 -189 187 -348 365 -418 173 -68 328 -60 499 24 214 106 341 326 328 569 -6
122 -34 209 -98 304 -81 121 -200 209 -337 250 -55 16 -196 27 -247 20z"/>
<path d="M3961 5672 c-32 -5 -69 -30 -83 -56 -6 -12 -17 -56 -24 -98 -15 -96
-45 -158 -105 -217 -59 -60 -123 -90 -211 -103 -118 -16 -158 -49 -158 -132 0
-39 5 -51 35 -81 37 -36 50 -40 135 -36 167 8 358 119 453 264 73 111 119 284
98 364 -18 64 -77 105 -140 95z"/>
<path d="M4558 5174 c-102 -24 -196 -79 -278 -163 -87 -87 -132 -165 -160
-277 -53 -206 5 -418 155 -570 129 -131 285 -192 465 -181 271 16 487 194 555
457 24 90 16 260 -15 349 -65 184 -233 337 -425 386 -73 18 -220 18 -297 -1z"/>
<path d="M1504 4575 c-71 -37 -82 -111 -30 -219 85 -175 241 -294 433 -332
130 -26 303 -2 350 48 53 57 49 134 -9 183 -31 26 -35 27 -103 20 -144 -16
-204 -11 -277 23 -79 38 -137 99 -179 189 -16 33 -41 69 -56 78 -36 24 -92 29
-129 10z"/>
<path d="M3131 4215 c-232 -53 -417 -239 -466 -471 -43 -205 15 -396 169 -550
127 -127 254 -179 436 -177 268 1 497 180 576 449 39 134 14 324 -59 453 -41
72 -142 178 -210 219 -129 78 -307 109 -446 77z"/>
<path d="M5855 3852 c-17 -10 -49 -44 -72 -75 -106 -140 -264 -182 -440 -119
-110 40 -166 25 -200 -56 -17 -41 -4 -98 30 -130 81 -77 307 -114 465 -77 171
40 371 207 397 331 7 37 -12 90 -43 118 -31 27 -100 31 -137 8z"/>
<path d="M4615 3806 c-201 -64 -357 -229 -409 -432 -18 -69 -21 -211 -6 -263
29 -103 153 -129 218 -46 19 24 22 40 22 126 0 200 80 313 266 379 89 31 124
67 124 127 0 101 -92 148 -215 109z"/>
<path d="M1618 3739 c-229 -24 -431 -189 -505 -414 -36 -108 -38 -256 -6 -360
95 -303 401 -485 707 -420 176 37 336 159 416 315 73 143 86 322 34 470 -97
278 -352 439 -646 409z"/>
<path d="M4791 3120 c-101 -27 -194 -81 -272 -159 -238 -240 -238 -612 1 -852
130 -130 279 -187 463 -176 120 7 208 35 301 98 95 63 156 133 205 234 48 99
64 166 64 270 0 399 -374 686 -762 585z"/>
<path d="M2453 2980 c-35 -21 -63 -66 -63 -100 0 -12 7 -47 16 -77 23 -78 16
-182 -17 -253 -36 -77 -80 -124 -160 -171 -77 -45 -101 -73 -102 -122 -2 -56
21 -94 68 -117 37 -18 50 -19 82 -11 66 18 163 83 231 155 71 76 131 189 151
284 25 118 5 295 -40 369 -38 62 -107 80 -166 43z"/>
<path d="M3950 2900 c-19 -5 -46 -22 -60 -39 -96 -115 -114 -132 -178 -163
-60 -30 -75 -33 -152 -32 -70 0 -96 5 -147 27 -74 32 -107 34 -151 7 -59 -36
-76 -117 -37 -177 35 -53 214 -113 335 -113 79 0 200 29 273 65 117 59 228
170 263 263 16 39 16 45 0 86 -14 36 -26 49 -60 65 -23 12 -44 21 -47 20 -2
-1 -20 -5 -39 -9z"/>
<path d="M3045 2290 c-249 -41 -448 -230 -500 -476 -29 -138 -12 -266 55 -401
70 -142 207 -256 365 -306 104 -32 252 -30 360 6 194 64 348 228 401 425 19
74 19 230 0 304 -37 138 -136 276 -254 354 -114 76 -296 116 -427 94z"/>
<path d="M4021 1995 c-35 -30 -55 -82 -45 -121 13 -54 66 -152 113 -208 116
-140 284 -218 470 -217 137 1 228 34 258 92 31 59 0 139 -63 165 -29 12 -46
13 -88 4 -199 -41 -355 31 -441 203 -40 82 -71 107 -133 107 -29 0 -49 -7 -71
-25z"/>
</g>
</svg>
